<?xml version="1.0" encoding="UTF-8" standalone="no"?>
<!DOCTYPE svg PUBLIC "-//W3C//DTD SVG 1.1//EN" "http://www.w3.org/Graphics/SVG/1.1/DTD/svg11.dtd">
<svg xmlns="http://www.w3.org/2000/svg" version="1.1" viewBox="0.00 0.00 1080.00 804.00">
<path fill="#005dab" d="
  M 590.25 638.81
  C 590.06 638.76 589.85 638.73 589.64 638.74
  C 589.25 638.75 588.88 638.85 588.53 639.04
  C 586.00 640.41 583.58 641.19 581.26 641.39
  C 576.58 641.81 572.28 643.80 567.62 644.31
  C 556.73 645.49 548.85 646.10 543.97 646.15
  C 537.80 646.21 531.65 646.31 525.52 646.45
  C 520.80 646.57 516.28 647.63 511.79 647.65
  C 499.76 647.72 487.05 647.69 473.68 647.56
  C 470.25 647.53 467.28 648.97 463.90 649.36
  C 463.13 649.45 462.49 649.99 462.27 650.74
  C 458.94 662.34 453.80 673.24 448.92 684.07
  C 448.23 685.61 448.70 686.60 450.33 687.04
  C 454.18 688.09 457.85 689.22 461.33 690.42
  C 471.01 693.77 475.98 700.03 478.33 709.75
  C 480.23 717.62 480.51 725.40 479.18 733.09
  C 476.63 747.77 467.47 752.54 454.02 753.16
  C 447.97 753.44 441.93 753.81 435.91 754.27
  C 434.27 754.40 433.47 755.22 433.51 756.73
  C 433.76 766.21 432.79 774.75 430.61 782.36
  C 428.51 789.68 423.14 796.11 415.18 796.90
  C 410.76 797.33 406.05 796.79 401.75 795.59
  C 383.96 790.62 371.07 786.73 357.32 784.70
  C 353.19 784.09 349.16 783.74 345.21 783.66
  C 339.68 783.55 334.65 783.64 330.12 783.91
  C 325.67 784.18 319.91 784.74 312.85 785.60
  C 307.18 786.29 301.56 787.07 295.98 787.96
  C 287.04 789.37 279.68 790.31 273.91 790.80
  C 268.05 791.30 261.82 791.44 255.22 791.21
  C 242.40 790.77 223.58 787.29 216.93 774.55
  C 213.80 768.54 212.67 762.19 213.54 755.49
  C 214.74 746.25 217.21 736.91 220.94 727.48
  C 227.65 710.57 234.37 693.83 241.11 677.28
  C 241.44 676.47 241.03 675.55 240.21 675.25
  C 224.08 669.34 211.92 658.36 201.00 644.69
  C 197.23 639.97 192.75 633.11 187.58 624.11
  C 186.13 621.57 183.96 619.78 182.62 617.02
  C 180.56 612.75 178.97 608.48 177.85 604.23
  C 174.94 593.26 173.45 581.55 173.37 569.11
  C 173.34 565.23 174.96 561.95 178.23 559.28
  C 178.67 558.91 179.30 558.86 179.80 559.15
  C 184.67 561.97 183.99 565.02 183.99 570.94
  C 183.99 575.28 183.53 580.18 184.89 584.26
  C 185.30 585.50 185.56 586.83 185.67 588.24
  C 185.77 589.49 186.05 590.84 186.51 592.28
  C 189.82 602.51 192.07 608.92 193.26 611.51
  C 200.95 628.18 211.60 642.23 225.21 653.66
  C 231.21 658.70 237.83 662.48 245.08 665.01
  C 245.66 665.21 246.29 664.93 246.52 664.36
  L 258.93 633.95
  C 259.24 633.19 259.97 632.70 260.79 632.70
  L 274.72 632.71
  C 275.11 632.71 275.41 633.05 275.36 633.43
  C 275.06 636.05 274.00 637.90 273.12 640.29
  C 263.67 665.82 254.20 691.22 244.71 716.49
  C 243.29 720.26 241.32 724.86 238.80 730.31
  C 237.20 733.77 235.37 738.81 233.30 745.44
  C 232.79 747.07 232.43 748.77 232.22 750.56
  C 231.95 752.86 231.10 755.31 231.14 757.56
  C 231.26 763.82 233.39 770.79 239.37 773.68
  C 242.36 775.13 244.74 775.94 246.50 776.09
  C 250.41 776.45 254.24 777.17 258.05 776.79
  C 263.70 776.22 269.57 776.38 275.13 775.16
  C 278.03 774.53 281.01 774.84 283.94 774.54
  C 292.85 773.61 301.48 773.36 310.01 772.61
  C 323.53 771.40 337.98 771.12 353.36 771.76
  C 358.83 771.98 364.29 772.91 369.72 773.70
  C 374.13 774.35 379.41 775.75 385.55 777.91
  C 390.79 779.76 396.13 780.75 401.85 781.14
  C 403.95 781.28 406.01 781.13 408.04 780.69
  C 411.64 779.91 414.12 775.43 415.29 772.24
  C 417.46 766.33 417.95 759.99 416.76 753.22
  C 416.18 749.92 414.52 745.35 412.13 743.01
  C 409.82 740.74 407.18 739.30 404.23 738.69
  C 399.17 737.64 393.84 737.27 388.24 737.59
  C 382.30 737.93 379.30 738.10 379.23 738.10
  C 374.51 738.19 369.79 738.20 365.07 738.11
  C 363.23 738.08 361.54 737.87 359.99 737.50
  C 356.31 736.60 353.08 735.47 351.16 731.93
  C 349.71 729.26 348.64 726.37 347.94 723.24
  C 347.32 720.50 347.42 716.72 346.65 713.44
  C 346.30 711.95 346.20 710.71 346.37 709.73
  C 346.95 706.36 347.39 702.73 347.68 698.84
  C 347.81 697.10 348.40 694.65 349.47 691.48
  C 352.01 683.96 358.02 678.93 364.95 675.12
  C 371.66 671.44 378.55 667.83 385.60 664.29
  C 389.03 662.58 392.42 660.34 395.80 658.26
  C 401.21 654.93 406.02 651.03 410.24 646.57
  C 413.73 642.87 415.92 638.51 418.06 633.99
  C 418.63 632.77 418.94 631.44 418.96 630.10
  C 419.03 625.32 419.01 620.66 418.89 616.13
  C 418.87 615.24 418.66 614.37 418.27 613.54
  C 403.16 581.53 384.07 548.13 360.99 513.34
  C 348.54 494.57 335.26 474.72 321.15 453.78
  C 320.38 452.64 319.27 452.05 317.82 452.01
  C 313.36 451.88 309.06 451.47 304.93 450.78
  C 300.11 449.98 295.01 448.01 289.62 444.86
  C 285.58 442.50 282.11 439.16 279.20 434.83
  C 273.48 426.31 270.91 418.02 268.14 408.61
  C 266.95 404.57 265.77 400.18 264.61 395.45
  C 261.19 381.58 257.85 368.01 254.59 354.74
  C 253.34 349.65 252.36 344.63 251.65 339.67
  C 251.02 335.26 250.14 331.04 249.01 327.03
  C 245.56 314.77 242.42 302.04 239.60 288.85
  C 237.87 280.78 234.47 273.02 232.50 264.92
  C 231.26 259.82 229.91 255.02 228.46 250.52
  C 227.73 248.27 227.22 246.00 226.92 243.70
  C 226.53 240.62 225.33 237.81 224.63 234.79
  C 220.08 215.18 216.16 195.76 212.86 176.52
  C 212.56 174.81 211.94 173.30 211.60 171.68
  C 209.87 163.41 208.17 155.12 206.51 146.83
  C 205.75 143.06 204.57 139.18 203.76 135.39
  C 201.31 123.88 198.26 111.09 194.59 97.02
  C 191.98 87.01 188.74 77.67 184.87 69.01
  C 179.25 56.44 170.62 44.63 158.50 38.66
  C 153.68 36.29 149.28 34.72 145.29 33.97
  C 136.51 32.31 125.70 32.73 116.82 35.18
  C 103.70 38.80 92.33 44.75 82.70 53.03
  C 77.32 57.66 72.53 63.55 68.32 70.70
  C 63.87 78.27 60.32 85.50 57.67 92.38
  C 54.69 100.12 51.81 108.13 49.63 116.09
  C 46.45 127.72 43.92 139.78 42.04 152.26
  C 41.87 153.39 41.68 154.54 41.49 155.72
  C 40.91 159.27 40.53 162.85 40.36 166.44
  C 40.23 169.22 41.70 171.75 41.66 174.56
  C 41.57 181.56 41.17 188.31 41.47 195.51
  C 42.00 208.51 42.01 221.68 42.29 234.32
  C 42.34 236.78 42.61 240.22 43.08 244.65
  C 43.57 249.18 43.59 254.12 44.13 258.44
  C 45.58 269.91 46.54 277.18 47.01 280.25
  C 50.58 303.27 54.05 326.31 57.42 349.36
  C 59.95 366.66 64.84 391.38 72.09 423.51
  C 73.06 427.81 73.71 431.49 74.04 434.55
  C 74.70 440.81 75.60 446.84 77.49 452.87
  C 78.24 455.28 79.06 457.59 79.95 459.80
  C 83.41 468.45 87.29 477.20 90.02 485.98
  C 91.21 489.83 92.57 493.71 94.08 497.62
  C 94.86 499.64 95.12 501.85 95.49 504.00
  C 95.64 504.92 95.26 505.84 94.50 506.38
  L 83.56 514.13
  C 83.15 514.42 82.57 514.30 82.32 513.86
  C 81.68 512.77 81.13 511.65 80.68 510.50
  C 75.68 497.67 71.54 484.34 68.26 470.50
  C 64.01 452.55 59.72 434.07 55.39 415.06
  C 50.26 392.51 45.97 369.90 42.52 347.21
  C 38.55 321.19 34.75 295.72 31.12 270.79
  C 30.23 264.67 29.78 258.55 28.99 252.26
  C 28.31 246.87 28.62 241.57 28.24 236.22
  C 27.57 226.63 27.22 217.29 27.21 208.20
  C 27.21 207.81 27.10 207.42 26.89 207.09
  C 26.39 206.28 25.87 205.63 25.84 204.62
  C 25.55 194.67 25.68 185.69 26.22 177.66
  C 26.70 170.53 27.49 161.86 28.59 151.65
  C 30.38 135.05 33.62 118.89 38.31 103.16
  C 49.09 66.96 70.38 34.06 107.74 22.22
  C 111.86 20.91 116.79 19.72 122.54 18.65
  C 141.85 15.04 160.80 18.54 175.69 31.03
  C 190.77 43.68 199.95 62.43 206.60 80.75
  C 210.95 92.72 214.88 106.13 218.40 120.99
  C 219.68 126.41 220.58 133.64 222.00 139.93
  C 222.77 143.38 223.24 146.81 223.41 150.20
  C 223.51 152.32 223.75 154.26 224.12 156.01
  C 224.79 159.17 224.94 162.29 225.49 165.49
  C 228.96 185.57 232.91 205.56 237.33 225.45
  C 238.81 232.10 239.47 238.96 241.31 245.53
  C 245.59 260.84 250.22 275.81 255.19 290.44
  C 257.78 298.07 258.56 305.92 260.84 313.56
  C 263.94 323.90 266.75 334.57 269.27 345.58
  C 271.17 353.89 268.32 361.75 273.64 369.37
  C 274.86 371.10 275.55 373.57 275.84 375.65
  C 277.45 387.07 279.76 398.28 282.76 409.27
  C 283.77 412.96 285.32 416.92 287.43 421.14
  C 291.47 429.22 297.34 436.35 306.73 436.74
  C 311.78 436.95 316.75 435.45 321.66 432.22
  C 335.31 423.26 345.83 409.62 356.10 396.15
  C 360.23 390.74 364.31 385.48 368.36 380.37
  C 392.18 350.26 415.81 318.38 444.96 294.39
  C 461.99 280.38 483.54 272.04 505.32 274.37
  C 513.88 275.29 522.98 277.99 532.61 282.47
  C 542.91 287.27 552.84 293.01 562.41 299.70
  C 563.04 300.14 563.92 299.94 564.30 299.27
  C 569.42 290.26 580.10 286.15 589.89 284.76
  C 599.56 283.39 607.46 282.94 613.60 283.41
  C 620.49 283.94 627.34 284.76 634.14 285.87
  C 652.37 288.87 670.78 292.78 687.61 298.91
  C 694.69 301.49 700.54 304.77 705.16 308.76
  C 709.09 312.15 710.43 316.22 709.17 320.99
  C 707.49 327.35 700.08 331.30 694.16 333.27
  C 685.85 336.04 678.89 337.76 673.29 338.45
  C 670.60 338.78 667.79 339.08 664.87 339.36
  C 661.65 339.67 658.62 339.54 655.79 338.98
  C 654.92 338.81 654.10 338.89 653.33 339.21
  C 652.41 339.58 651.97 340.63 652.35 341.55
  C 653.78 345.00 657.18 348.03 659.60 350.92
  C 660.50 351.99 660.87 353.25 660.71 354.68
  C 660.62 355.50 659.97 356.14 659.16 356.22
  C 652.29 356.93 646.46 354.42 641.66 348.69
  C 635.90 341.83 617.53 318.28 643.67 321.97
  C 648.25 322.62 652.76 323.27 657.20 323.93
  C 665.14 325.12 673.23 324.95 680.81 323.93
  C 684.80 323.39 689.88 321.63 693.23 318.94
  C 694.30 318.08 694.23 317.31 693.04 316.64
  C 690.13 315.00 686.84 313.45 683.15 311.99
  C 664.88 304.74 646.83 300.18 628.98 298.31
  C 624.65 297.86 620.41 297.50 616.27 297.23
  C 608.82 296.75 601.41 297.14 594.05 298.40
  C 590.40 299.02 587.25 299.98 584.61 301.28
  C 573.81 306.58 578.32 317.91 584.40 324.81
  C 587.23 328.04 590.54 331.18 594.32 334.23
  C 599.85 338.70 605.08 342.94 610.00 346.93
  C 613.18 349.52 616.19 352.76 619.02 356.67
  C 619.79 357.73 621.35 358.32 623.69 358.43
  C 632.77 358.85 641.58 358.94 650.31 360.07
  C 654.12 360.56 657.97 360.59 661.69 361.24
  C 671.45 362.93 680.61 366.57 689.17 372.14
  C 694.16 375.39 699.60 380.36 698.51 386.68
  C 697.97 389.83 696.78 393.02 694.37 395.32
  C 690.35 399.15 686.12 401.87 681.69 403.50
  C 674.34 406.20 666.63 407.27 658.56 406.72
  C 657.49 406.65 656.41 406.71 655.33 406.92
  C 654.48 407.09 654.21 408.16 654.87 408.72
  C 659.35 412.48 664.85 415.94 671.37 419.11
  C 678.02 422.34 684.66 425.52 691.29 428.64
  C 691.68 428.83 691.95 429.20 691.99 429.63
  C 692.10 430.70 691.42 431.80 690.49 432.30
  C 688.15 433.58 685.73 436.14 683.06 436.21
  C 681.60 436.24 680.17 436.07 678.77 435.70
  C 665.57 432.18 653.01 424.01 642.12 415.47
  C 636.22 410.86 631.75 405.90 628.70 400.61
  C 627.67 398.82 627.25 396.86 627.42 394.73
  C 627.45 394.33 627.69 393.97 628.06 393.78
  C 630.98 392.31 637.61 392.65 640.75 392.90
  C 647.85 393.47 655.10 394.16 662.49 394.98
  C 664.48 395.20 666.31 395.20 668.00 394.97
  C 674.42 394.10 679.85 392.89 684.44 388.04
  C 685.28 387.15 685.26 385.76 684.41 384.89
  C 680.58 381.00 674.99 378.77 669.67 377.47
  C 654.41 373.76 639.95 371.11 626.30 369.52
  C 615.83 368.30 604.86 368.37 593.41 369.72
  C 587.64 370.40 582.20 371.67 577.10 373.54
  C 572.06 375.38 565.97 380.16 570.80 386.06
  C 572.58 388.24 574.97 390.13 577.97 391.72
  C 585.51 395.71 592.32 399.67 599.36 404.67
  C 610.60 412.67 621.18 419.94 631.11 426.48
  C 636.05 429.73 641.32 432.87 646.92 435.88
  C 652.52 438.89 657.56 442.43 663.09 445.57
  C 667.07 447.83 669.68 451.97 671.90 456.12
  C 672.87 457.92 672.73 460.39 671.89 462.19
  C 669.76 466.76 668.01 471.30 666.63 475.81
  C 665.96 477.99 665.00 480.10 663.75 482.14
  C 662.80 483.69 661.92 485.32 661.11 487.01
  C 639.76 531.36 622.63 577.85 609.22 625.17
  C 608.04 629.32 606.77 633.52 605.40 637.77
  C 603.29 644.33 601.82 651.16 600.97 658.27
  C 600.78 659.85 600.52 661.36 600.18 662.81
  C 599.73 664.73 599.88 666.71 599.54 668.65
  C 598.30 675.74 597.07 683.18 596.64 690.35
  C 596.38 694.73 595.53 699.01 595.40 703.36
  C 595.22 709.24 594.92 714.96 594.50 720.52
  C 593.65 731.73 593.78 742.57 593.89 753.52
  C 593.89 753.85 593.99 754.14 594.18 754.41
  C 598.35 760.06 603.86 763.25 610.70 763.98
  C 615.53 764.49 619.89 765.59 624.82 764.93
  C 628.55 764.44 630.86 764.18 631.77 764.16
  C 640.86 763.95 650.13 762.90 659.55 762.53
  C 664.07 762.35 668.80 762.11 673.75 761.80
  C 686.40 761.01 701.11 760.93 717.88 761.58
  C 720.40 761.68 722.85 762.40 725.37 762.51
  C 730.36 762.74 735.19 763.42 739.86 764.53
  C 743.61 765.42 748.18 767.01 753.56 769.28
  C 755.92 770.28 758.78 770.68 762.15 770.47
  C 765.78 770.24 768.15 768.30 769.26 764.64
  C 770.50 760.52 769.92 757.10 769.37 753.02
  C 768.15 744.02 761.87 737.86 752.80 735.12
  C 746.91 733.34 740.29 731.73 732.93 730.30
  C 719.45 727.68 705.33 721.01 697.72 709.29
  C 691.81 700.16 692.32 687.47 694.66 677.08
  C 695.77 672.15 694.96 667.35 695.77 662.48
  C 697.61 651.38 700.03 642.25 703.02 635.08
  C 705.46 629.24 709.17 622.35 714.16 614.42
  C 722.42 601.27 734.47 583.51 750.30 561.12
  C 753.55 556.53 756.83 552.20 760.15 548.14
  C 767.18 539.54 774.58 531.16 782.18 523.10
  C 786.64 518.36 789.97 512.78 794.23 507.81
  C 806.52 493.47 817.54 478.88 829.31 463.34
  C 831.47 460.49 834.63 457.17 838.80 453.38
  C 843.56 449.04 846.10 443.47 850.16 438.66
  C 856.97 430.59 862.63 421.36 867.14 410.97
  C 873.34 396.72 878.81 382.74 883.56 369.04
  C 884.91 365.14 888.31 356.54 893.74 343.24
  C 898.85 330.74 904.46 320.29 910.55 311.89
  C 916.82 303.24 922.82 294.79 928.54 286.54
  C 941.45 267.91 952.79 247.51 962.55 225.34
  C 968.02 212.91 973.10 200.37 977.79 187.73
  C 984.90 168.58 994.16 142.26 1005.57 108.79
  C 1007.71 102.50 1010.32 96.25 1012.70 90.01
  C 1017.63 77.10 1024.13 64.85 1032.22 53.25
  C 1037.55 45.61 1043.24 40.26 1049.70 34.25
  C 1050.59 33.42 1050.95 32.18 1050.65 31.01
  C 1049.42 26.18 1045.82 20.24 1039.66 23.31
  C 1035.88 25.19 1033.03 27.13 1031.10 29.12
  C 1025.35 35.07 1018.97 41.21 1013.87 47.51
  C 1005.30 58.11 996.22 71.01 986.61 86.20
  C 982.16 93.24 976.94 101.05 970.93 109.64
  C 967.72 114.23 963.66 119.53 958.77 125.55
  C 933.22 156.98 907.27 187.29 880.92 216.46
  C 857.33 242.57 831.67 270.17 803.94 299.28
  C 799.27 304.19 794.68 308.84 790.19 313.25
  C 772.69 330.44 755.31 346.65 739.06 366.04
  C 737.09 368.40 735.19 371.00 733.36 373.84
  C 729.39 380.02 725.67 385.55 718.70 388.62
  C 718.01 388.93 717.19 388.66 716.81 388.01
  C 714.85 384.65 714.23 381.51 715.72 377.72
  C 716.95 374.62 718.53 371.85 720.45 369.40
  C 730.96 356.02 741.83 343.57 753.04 332.05
  C 766.54 318.19 780.62 304.34 794.18 290.28
  C 852.48 229.77 908.22 164.78 961.54 98.52
  C 964.29 95.10 966.94 91.44 969.49 87.54
  C 984.68 64.28 1001.01 42.27 1020.17 21.84
  C 1022.35 19.51 1024.39 17.19 1026.28 14.86
  C 1029.60 10.77 1033.83 5.47 1039.61 5.43
  C 1055.60 5.31 1061.02 22.57 1073.19 29.12
  C 1073.94 29.52 1074.11 30.51 1073.55 31.15
  C 1068.65 36.72 1063.17 42.65 1057.11 48.92
  C 1045.54 60.91 1035.91 72.41 1029.43 87.14
  C 1026.65 93.48 1023.76 99.95 1021.46 106.50
  C 1015.65 123.02 1010.17 139.55 1003.70 155.87
  C 1000.35 164.32 997.12 172.78 994.03 181.27
  C 985.74 203.97 976.67 226.31 966.82 248.29
  C 963.00 256.80 958.49 265.69 953.28 274.96
  C 946.89 286.33 938.38 298.06 930.82 309.56
  C 924.93 318.54 918.99 327.14 912.70 335.87
  C 909.13 340.84 905.98 345.98 903.25 351.30
  C 900.26 357.13 897.78 362.80 895.81 368.32
  C 891.03 381.71 886.17 395.73 881.23 410.38
  C 880.51 412.53 879.44 414.47 878.36 416.47
  C 874.63 423.37 870.72 430.35 866.62 437.41
  C 865.80 438.82 864.83 440.19 863.72 441.52
  C 861.07 444.69 859.18 448.54 856.99 452.07
  C 855.74 454.08 854.18 456.09 852.31 458.11
  C 846.84 464.00 841.45 470.82 836.13 478.56
  C 835.02 480.18 832.83 481.66 831.46 483.65
  C 826.16 491.35 820.05 499.46 813.13 507.98
  C 810.91 510.70 808.08 512.22 806.07 514.90
  C 799.58 523.54 793.07 531.19 788.26 541.16
  C 785.43 547.04 782.84 552.91 780.49 558.78
  C 778.32 564.18 777.55 569.66 774.32 574.79
  C 772.86 577.11 771.56 579.55 770.43 582.12
  C 764.54 595.47 760.08 607.48 757.07 618.14
  C 755.58 623.41 754.97 628.99 753.67 634.36
  C 753.16 636.47 752.86 638.63 752.79 640.86
  C 752.44 651.39 753.22 662.11 755.15 673.01
  C 755.30 673.86 755.58 674.70 755.99 675.52
  C 756.16 675.85 756.47 676.10 756.83 676.21
  C 758.20 676.62 759.76 676.85 761.50 676.88
  C 768.39 677.03 774.16 675.55 780.50 673.60
  C 789.13 670.95 796.56 670.31 805.37 673.88
  C 817.81 678.91 824.98 693.13 825.94 706.00
  C 826.53 713.80 825.20 720.78 821.97 726.95
  C 816.46 737.47 805.38 742.44 793.67 741.05
  C 789.02 740.50 786.63 750.27 786.00 754.24
  C 785.25 758.97 784.54 763.85 783.89 768.90
  C 783.39 772.75 781.56 778.28 778.37 781.00
  C 771.33 787.02 761.38 784.95 753.23 783.09
  C 732.55 778.38 712.24 775.53 692.30 774.54
  C 678.27 773.85 665.04 774.44 652.59 776.29
  C 643.61 777.62 634.69 778.95 625.82 780.27
  C 616.21 781.69 607.15 781.69 598.65 780.27
  C 595.22 779.70 591.80 778.40 588.37 776.39
  C 580.17 771.57 577.74 765.12 577.31 756.13
  C 577.03 750.25 577.18 744.21 577.77 738.01
  C 579.22 722.82 580.93 707.05 582.90 690.70
  C 583.41 686.46 582.95 682.22 583.61 678.08
  C 585.12 668.75 586.81 659.46 588.69 650.20
  C 589.43 646.53 589.09 642.85 590.53 639.39
  C 590.66 639.09 590.56 638.90 590.25 638.81
  Z
  M 571.26 508.37
  C 563.35 508.96 556.86 505.00 549.86 500.81
  C 537.02 493.13 524.59 510.98 536.70 519.77
  C 545.04 525.82 553.44 529.57 561.90 531.01
  C 567.52 531.97 574.89 532.24 580.50 530.05
  C 583.75 528.78 585.84 527.76 586.79 526.99
  C 592.66 522.19 596.21 515.99 597.43 508.38
  C 600.50 489.18 587.27 472.32 570.36 464.92
  C 561.65 461.11 551.30 461.24 544.47 454.11
  C 541.71 451.22 540.34 446.35 542.66 442.87
  C 545.63 438.42 549.82 436.80 555.22 438.03
  C 564.04 440.03 572.13 444.37 579.22 450.36
  C 585.60 455.75 594.81 453.57 597.88 445.85
  C 600.27 439.83 597.27 434.82 592.24 430.96
  C 578.68 420.56 562.24 412.42 545.65 414.83
  C 538.14 415.92 531.51 419.83 525.77 426.56
  C 522.58 430.29 520.42 434.12 519.27 438.05
  C 516.69 446.91 517.90 455.54 522.90 463.93
  C 529.58 475.16 541.53 481.56 554.93 484.36
  C 562.19 485.88 568.01 489.33 572.24 495.56
  C 574.36 498.69 574.95 502.06 574.01 505.68
  C 573.66 507.03 572.77 508.26 571.26 508.37
  Z
  M 466.09 522.29
  C 468.74 513.42 471.02 504.84 472.93 496.54
  C 474.75 488.59 476.24 478.77 477.41 467.07
  C 478.08 460.32 477.59 453.71 475.95 447.24
  C 474.19 440.28 470.91 435.68 465.26 431.31
  C 462.01 428.80 456.13 428.70 452.41 429.13
  C 448.92 429.52 444.73 430.53 439.84 432.16
  C 432.53 434.58 425.66 436.74 419.23 438.63
  C 415.97 439.58 412.74 440.27 409.53 440.68
  C 404.48 441.33 400.95 443.67 398.93 447.70
  C 394.89 455.74 402.15 465.42 410.87 464.15
  C 424.20 462.22 438.04 457.40 451.26 452.99
  C 452.40 452.61 453.60 453.34 453.79 454.52
  C 454.33 458.00 454.47 461.36 454.21 464.59
  C 453.22 477.00 450.81 490.19 446.99 504.18
  C 444.84 512.07 442.58 519.83 440.21 527.48
  C 438.66 532.47 437.91 536.26 437.94 538.85
  C 438.00 543.94 440.59 547.48 445.70 549.46
  C 450.67 551.39 457.57 550.49 462.76 549.21
  C 472.94 546.70 485.82 543.21 501.39 538.73
  C 508.04 536.82 511.12 530.26 509.16 523.90
  C 508.55 521.92 507.20 520.10 505.11 518.43
  C 502.04 515.98 498.19 515.40 493.55 516.71
  C 484.56 519.26 475.92 521.65 467.65 523.89
  C 466.17 524.30 465.65 523.76 466.09 522.29
  Z
  M 737.81 648.29
  C 737.89 645.26 738.85 642.49 738.65 639.43
  C 738.35 634.77 738.49 629.90 739.07 624.83
  C 739.49 621.12 740.24 617.70 741.32 614.57
  C 742.71 610.53 744.11 607.15 745.50 604.44
  C 747.10 601.34 749.42 598.62 750.90 595.29
  C 754.18 587.91 756.96 580.24 760.65 573.04
  C 762.27 569.89 764.00 566.64 765.84 563.30
  C 765.93 563.13 765.92 562.97 765.81 562.82
  C 765.75 562.73 765.64 562.70 765.49 562.71
  C 765.36 562.72 765.26 562.77 765.17 562.86
  C 763.84 564.23 762.62 565.71 761.53 567.29
  C 753.44 578.96 745.37 590.63 737.30 602.31
  C 734.55 606.30 731.99 612.05 728.67 616.45
  C 724.83 621.53 721.81 625.93 719.51 632.22
  C 714.90 644.87 711.42 658.22 709.07 672.27
  C 708.75 674.18 708.58 676.06 708.56 677.90
  C 708.53 681.99 707.90 685.84 708.12 689.97
  C 708.24 692.15 708.51 694.13 708.93 695.90
  C 710.90 704.19 718.32 709.67 726.08 712.38
  C 733.01 714.80 740.28 716.71 747.91 718.10
  C 754.13 719.24 760.04 721.36 765.82 723.59
  C 769.57 725.04 772.85 727.24 775.68 730.20
  C 777.60 732.21 780.37 729.84 782.53 729.43
  C 786.28 728.72 790.17 728.03 794.22 727.37
  C 796.28 727.04 798.55 726.48 801.04 725.70
  C 805.90 724.19 811.57 720.48 811.58 715.21
  C 811.59 711.86 810.56 708.73 810.37 705.34
  C 809.75 694.15 803.77 686.75 792.15 686.44
  C 788.55 686.34 785.63 686.49 783.38 686.90
  C 776.68 688.11 769.88 689.28 762.98 690.41
  C 756.76 691.43 752.22 691.46 746.79 689.20
  C 740.47 686.57 739.50 678.13 738.37 672.35
  C 737.97 670.34 737.76 668.33 737.73 666.30
  C 737.64 660.27 737.66 654.26 737.81 648.29
  Z
  M 428.28 698.63
  C 427.99 698.48 427.86 698.14 427.96 697.83
  C 431.27 688.15 435.41 678.60 439.75 669.63
  C 443.24 662.41 446.27 655.26 448.84 648.19
  C 449.14 647.35 448.61 646.45 447.73 646.31
  L 431.74 643.76
  C 431.34 643.69 431.04 643.83 430.84 644.18
  C 427.95 649.10 423.99 654.33 419.01 657.84
  C 415.65 660.21 412.86 663.88 409.25 665.70
  C 402.09 669.31 394.06 673.28 385.16 677.59
  C 381.01 679.61 376.87 682.25 372.99 684.85
  C 368.95 687.56 365.67 691.63 363.15 697.06
  C 362.14 699.23 362.61 701.53 361.89 703.71
  C 360.98 706.43 360.81 709.16 361.82 711.88
  C 362.49 713.66 362.21 715.57 363.27 717.22
  C 364.04 718.43 364.84 719.63 365.67 720.82
  C 366.50 722.02 368.09 722.30 369.47 722.29
  C 377.08 722.28 384.51 722.20 391.75 722.06
  C 397.91 721.94 403.81 723.00 409.91 723.48
  C 413.84 723.79 418.03 725.25 422.46 727.87
  C 425.78 729.84 427.72 733.00 429.62 736.15
  C 430.02 736.81 430.61 737.13 431.38 737.11
  C 437.36 736.92 443.60 736.91 450.11 737.08
  C 452.62 737.15 454.73 736.72 456.45 735.79
  C 458.74 734.55 460.45 732.77 461.58 730.44
  C 462.41 728.73 462.83 726.62 462.84 724.13
  C 462.86 721.05 462.72 718.72 462.42 717.15
  C 461.23 710.87 458.21 706.04 453.37 702.67
  C 451.19 701.15 449.22 700.40 447.47 700.41
  C 443.28 700.43 439.20 700.41 435.25 700.34
  C 432.68 700.30 430.36 699.73 428.28 698.63
  Z"
/>
<path fill="#005dab" d="
  M 830.64 380.74
  C 826.33 388.97 820.14 396.05 813.58 402.83
  C 804.84 411.87 796.12 418.63 787.42 423.11
  C 778.13 427.90 768.68 431.39 759.07 433.58
  C 754.46 434.63 749.73 434.66 744.86 433.66
  C 742.63 433.21 740.85 432.22 739.50 430.69
  C 733.53 423.87 735.70 411.81 739.62 404.64
  C 743.47 397.59 748.29 392.08 754.64 386.49
  C 769.00 373.86 782.23 359.87 794.50 344.69
  C 795.18 343.84 795.94 343.16 797.11 343.26
  C 807.47 344.15 816.25 347.01 823.45 351.84
  C 833.67 358.69 836.42 369.71 830.64 380.74
  Z
  M 811.6642 360.5419
  C 811.49 358.83 807.50 357.85 802.7503 358.3365
  C 798.00 358.83 794.30 360.61 794.4758 362.3181
  C 794.65 364.03 798.64 365.01 803.3897 364.5235
  C 808.14 364.03 811.84 362.25 811.6642 360.5419
  Z
  M 798.85 375.52
  C 794.82 375.09 790.60 374.39 786.21 373.44
  C 785.37 373.26 784.50 373.57 783.97 374.24
  C 777.52 382.33 769.25 388.47 761.49 395.18
  C 756.08 399.86 751.77 405.44 748.43 411.68
  C 747.16 414.06 746.49 415.75 746.41 416.76
  C 746.17 419.72 749.01 421.78 751.82 421.91
  C 758.55 422.24 764.72 421.56 770.35 419.89
  C 784.37 415.71 797.10 407.19 807.81 397.11
  C 813.23 392.02 819.30 384.21 820.20 376.63
  C 820.31 375.72 819.49 374.97 818.60 375.16
  C 813.98 376.14 809.77 376.74 805.00 376.20
  C 803.00 375.97 800.95 375.75 798.85 375.52
  Z"
/>
<path fill="#005dab" d="
  M 103.89 473.51
  C 104.37 467.04 108.90 452.95 117.11 452.87
  C 120.81 452.84 122.86 457.27 123.20 460.21
  C 123.90 466.18 123.98 471.36 123.44 475.76
  C 122.75 481.29 122.29 485.89 122.06 489.56
  C 121.88 492.33 121.72 495.09 121.58 497.85
  C 121.41 501.10 121.36 504.30 121.43 507.45
  C 121.63 516.98 122.04 524.86 122.67 531.10
  C 123.91 543.47 126.48 556.56 130.39 570.37
  C 132.43 577.60 132.82 584.96 131.56 592.45
  C 131.50 592.85 131.15 593.14 130.74 593.14
  C 130.06 593.15 129.52 592.82 129.12 592.17
  C 124.91 585.39 121.38 578.07 118.51 570.22
  C 110.87 549.30 106.52 527.50 105.46 504.81
  C 105.29 501.04 104.93 497.16 104.40 493.19
  C 103.56 486.84 103.39 480.28 103.89 473.51
  Z"
/>
<path fill="#005dab" d="
  M 139.81 542.07
  C 139.02 534.83 139.58 525.53 144.91 519.77
  C 147.37 517.11 151.29 517.37 152.49 521.21
  C 153.26 523.69 153.57 526.24 153.42 528.85
  C 153.20 532.70 152.89 536.75 152.48 540.98
  C 151.78 548.32 151.71 557.00 152.27 567.02
  C 152.79 576.53 154.66 586.91 157.87 598.16
  C 159.24 602.97 159.57 607.94 158.86 613.06
  C 158.81 613.47 158.60 613.81 158.25 614.06
  C 157.88 614.33 157.35 614.22 157.12 613.82
  C 149.65 600.70 145.46 586.88 142.86 572.23
  C 141.13 562.46 140.90 552.13 139.81 542.07
  Z"
/>
</svg>
